{
  "source": "C:\\Users\\Peter\\Desktop\\stuff\\MIUN\\quantitative_research\\video_compression\\videos\\HEVC_CLASS_B\\Kimono_1920x1080_24.y4m",
  "output": "C:\\Users\\Peter\\Desktop\\stuff\\MIUN\\quantitative_research\\video_compression\\compressed_videos\\HEVC_CLASS_B\\hevc\\2.5\\Kimono_1920x1080_24_hevc.mp4",
  "codec": "hevc",
  "ok": "Input #0, yuv4mpegpipe, from 'C:\\Users\\Peter\\Desktop\\stuff\\MIUN\\quantitative_research\\video_compression\\videos\\HEVC_CLASS_B\\Kimono_1920x1080_24.y4m':\n  Duration: 00:00:10.00, start: 0.000000, bitrate: 597198 kb/s\n  Stream #0:0: Video: rawvideo (I420 / 0x30323449), yuv420p(progressive), 1920x1080, 24 fps, 24 tbr, 24 tbn\n[out#0/mp4 @ 000001ed58b6b680] Codec AVOption b:a (set bitrate (in bits/s)) has not been used for any stream. The most likely reason is either wrong type (e.g. a video option with no video streams) or that it is a private option of some decoder which was not actually used for any stream.\nStream mapping:\n  Stream #0:0 -> #0:0 (rawvideo (native) -> hevc (libx265))\nPress [q] to stop, [?] for help\n[libx265 @ 000001ed58b6cac0] Unknown option: \"aq-mode.\nx265 [info]: HEVC encoder version 4.1+190-8f11c33ac\nx265 [info]: build info [Windows][GCC 15.1.0][64 bit] 10bit\nx265 [info]: using cpu capabilities: MMX2 SSE2Fast LZCNT SSSE3 SSE4.2 AVX FMA3 BMI2 AVX2\nx265 [info]: Main 10 profile, Level-4 (Main tier)\nx265 [info]: Thread pool created using 12 threads\nx265 [info]: Slices                              : 1\nx265 [info]: frame threads / pool features       : 3 / wpp(17 rows)\nx265 [info]: Coding QT: max CU size, min CU size : 64 / 8\nx265 [info]: Residual QT: max TU size, max depth : 32 / 1 inter / 1 intra\nx265 [info]: ME / range / subpel / merge         : star / 57 / 3 / 3\nx265 [info]: Keyframe min / max / scenecut / bias  : 24 / 250 / 40 / 5.00 \nx265 [info]: Lookahead / bframes / badapt        : 25 / 4 / 2\nx265 [info]: b-pyramid / weightp / weightb       : 1 / 1 / 0\nx265 [info]: References / ref-limit  cu / depth  : 4 / on / on\nx265 [info]: AQ: mode / str / qg-size / cu-tree  : 2 / 1.0 / 32 / 1\nx265 [info]: Rate Control / qCompress            : ABR-2500 kbps / 0.60\nx265 [info]: VBV/HRD buffer / max-rate / init    : 2500 / 2500 / 0.750\nx265 [info]: tools: rect limit-modes rd=4 psy-rd=2.00 rdoq=2 psy-rdoq=1.00\nx265 [info]: tools: rskip mode=1 signhide tmvp strong-intra-smoothing lslices=4\nx265 [info]: tools: deblock sao dhdr10-info\nOutput #0, mp4, to 'C:\\Users\\Peter\\Desktop\\stuff\\MIUN\\quantitative_research\\video_compression\\compressed_videos\\HEVC_CLASS_B\\hevc\\2.5\\Kimono_1920x1080_24_hevc.mp4':\n  Metadata:\n    encoder         : Lavf62.3.100\n  Stream #0:0: Video: hevc (hev1 / 0x31766568), yuv420p10le(tv, progressive), 1920x1080, q=2-31, 2500 kb/s, 24 fps, 12288 tbn\n    Metadata:\n      encoder         : Lavc62.11.100 libx265\n    Side data:\n      cpb: bitrate max/min/avg: 2500000/0/2500000 buffer size: 2500000 vbv_delay: N/A\nframe=    0 fps=0.0 q=0.0 size=       0KiB time=N/A bitrate=N/A speed=N/A elapsed=0:00:00.52    \nframe=    0 fps=0.0 q=0.0 size=       0KiB time=N/A bitrate=N/A speed=N/A elapsed=0:00:01.04    \nframe=    0 fps=0.0 q=0.0 size=       0KiB time=N/A bitrate=N/A speed=N/A elapsed=0:00:01.55    \nframe=    0 fps=0.0 q=0.0 size=       0KiB time=N/A bitrate=N/A speed=N/A elapsed=0:00:02.07    \nframe=    0 fps=0.0 q=0.0 size=       0KiB time=N/A bitrate=N/A speed=N/A elapsed=0:00:02.60    \nframe=    0 fps=0.0 q=0.0 size=       0KiB time=N/A bitrate=N/A speed=N/A elapsed=0:00:03.10    \nframe=    0 fps=0.0 q=0.0 size=       0KiB time=N/A bitrate=N/A speed=N/A elapsed=0:00:03.62    \nframe=    0 fps=0.0 q=0.0 size=       0KiB time=N/A bitrate=N/A speed=N/A elapsed=0:00:04.15    \nframe=    0 fps=0.0 q=0.0 size=       0KiB time=N/A bitrate=N/A speed=N/A elapsed=0:00:04.68    \nframe=    0 fps=0.0 q=0.0 size=       0KiB time=N/A bitrate=N/A speed=N/A elapsed=0:00:05.20    \nframe=    0 fps=0.0 q=0.0 size=       0KiB time=N/A bitrate=N/A speed=N/A elapsed=0:00:05.72    \nframe=    1 fps=0.2 q=32.4 size=       0KiB time=-00:00:00.04 bitrate=N/A speed=N/A elapsed=0:00:06.23    \nframe=    1 fps=0.1 q=32.4 size=       0KiB time=-00:00:00.04 bitrate=N/A speed=N/A elapsed=0:00:06.77    \nframe=    1 fps=0.1 q=32.4 size=       0KiB time=-00:00:00.04 bitrate=N/A speed=N/A elapsed=0:00:07.29    \nframe=    2 fps=0.3 q=36.2 size=       0KiB time=00:00:00.00 bitrate=N/A speed=   0x elapsed=0:00:07.83    \nframe=    2 fps=0.2 q=36.2 size=       0KiB time=00:00:00.00 bitrate=N/A speed=   0x elapsed=0:00:08.38    \nframe=    3 fps=0.3 q=38.8 size=       0KiB time=00:00:00.04 bitrate=   8.4kbits/s speed=0.00468x elapsed=0:00:08.90    \nframe=    3 fps=0.3 q=38.8 size=       0KiB time=00:00:00.04 bitrate=   8.4kbits/s speed=0.00442x elapsed=0:00:09.42    \nframe=    3 fps=0.3 q=38.8 size=       0KiB time=00:00:00.04 bitrate=   8.4kbits/s speed=0.00419x elapsed=0:00:09.94    \nframe=    3 fps=0.3 q=38.8 size=       0KiB time=00:00:00.04 bitrate=   8.4kbits/s speed=0.00398x elapsed=0:00:10.47    \nframe=    3 fps=0.3 q=38.8 size=       0KiB time=00:00:00.04 bitrate=   8.4kbits/s speed=0.00378x elapsed=0:00:11.01    \nframe=    3 fps=0.3 q=38.8 size=       0KiB time=00:00:00.04 bitrate=   8.4kbits/s speed=0.00361x elapsed=0:00:11.54    \nframe=    4 fps=0.3 q=40.6 size=       0KiB time=00:00:00.08 bitrate=   4.2kbits/s speed=0.00691x elapsed=0:00:12.06    \nframe=    4 fps=0.3 q=40.6 size=       0KiB time=00:00:00.08 bitrate=   4.2kbits/s speed=0.00662x elapsed=0:00:12.58    \nframe=    4 fps=0.3 q=40.6 size=       0KiB time=00:00:00.08 bitrate=   4.2kbits/s speed=0.00636x elapsed=0:00:13.11    \nframe=    4 fps=0.3 q=40.6 size=       0KiB time=00:00:00.08 bitrate=   4.2kbits/s speed=0.00611x elapsed=0:00:13.64    \nframe=    4 fps=0.3 q=40.6 size=       0KiB time=00:00:00.08 bitrate=   4.2kbits/s speed=0.00588x elapsed=0:00:14.17    \nframe=    4 fps=0.3 q=40.6 size=       0KiB time=00:00:00.08 bitrate=   4.2kbits/s speed=0.00567x elapsed=0:00:14.68    \nframe=    5 fps=0.3 q=39.5 size=       0KiB time=00:00:00.12 bitrate=   2.8kbits/s speed=0.00822x elapsed=0:00:15.20    \nframe=    5 fps=0.3 q=39.5 size=       0KiB time=00:00:00.12 bitrate=   2.8kbits/s speed=0.00795x elapsed=0:00:15.71    \nframe=    6 fps=0.4 q=34.7 size=       0KiB time=00:00:00.16 bitrate=   2.1kbits/s speed=0.0103x elapsed=0:00:16.22    \nframe=    6 fps=0.4 q=34.7 size=       0KiB time=00:00:00.16 bitrate=   2.1kbits/s speed=0.00995x elapsed=0:00:16.75    \nframe=    6 fps=0.3 q=34.7 size=       0KiB time=00:00:00.16 bitrate=   2.1kbits/s speed=0.00965x elapsed=0:00:17.27    \nframe=    6 fps=0.3 q=34.7 size=       0KiB time=00:00:00.16 bitrate=   2.1kbits/s speed=0.00936x elapsed=0:00:17.80    \nframe=    6 fps=0.3 q=34.7 size=       0KiB time=00:00:00.16 bitrate=   2.1kbits/s speed=0.00909x elapsed=0:00:18.33    \nframe=    7 fps=0.4 q=38.7 size=       0KiB time=00:00:00.20 bitrate=   1.7kbits/s speed=0.0111x elapsed=0:00:18.84    \nframe=    7 fps=0.4 q=38.7 size=       0KiB time=00:00:00.20 bitrate=   1.7kbits/s speed=0.0108x elapsed=0:00:19.36    \nframe=    8 fps=0.4 q=40.0 size=       0KiB time=00:00:00.25 bitrate=   1.4kbits/s speed=0.0126x elapsed=0:00:19.87    \nframe=    8 fps=0.4 q=40.0 size=       0KiB time=00:00:00.25 bitrate=   1.4kbits/s speed=0.0123x elapsed=0:00:20.39    \nframe=    8 fps=0.4 q=40.0 size=       0KiB time=00:00:00.25 bitrate=   1.4kbits/s speed=0.012x elapsed=0:00:20.91    \nframe=    8 fps=0.4 q=40.0 size=       0KiB time=00:00:00.25 bitrate=   1.4kbits/s speed=0.0117x elapsed=0:00:21.44    \nframe=    8 fps=0.4 q=40.0 size=       0KiB time=00:00:00.25 bitrate=   1.4kbits/s speed=0.0114x elapsed=0:00:21.98    \nframe=    9 fps=0.4 q=39.3 size=       0KiB time=00:00:00.29 bitrate=   1.2kbits/s speed=0.013x elapsed=0:00:22.50    \nframe=    9 fps=0.4 q=39.3 size=       0KiB time=00:00:00.29 bitrate=   1.2kbits/s speed=0.0127x elapsed=0:00:23.03    \nframe=    9 fps=0.4 q=39.3 size=       0KiB time=00:00:00.29 bitrate=   1.2kbits/s speed=0.0124x elapsed=0:00:23.55    \nframe=    9 fps=0.4 q=39.3 size=       0KiB time=00:00:00.29 bitrate=   1.2kbits/s speed=0.0121x elapsed=0:00:24.07    \nframe=    9 fps=0.4 q=39.3 size=       0KiB time=00:00:00.29 bitrate=   1.2kbits/s speed=0.0119x elapsed=0:00:24.59    \nframe=    9 fps=0.4 q=39.3 size=       0KiB time=00:00:00.29 bitrate=   1.2kbits/s speed=0.0116x elapsed=0:00:25.12    \nframe=   10 fps=0.4 q=38.9 size=       0KiB time=00:00:00.33 bitrate=   1.1kbits/s speed=0.013x elapsed=0:00:25.63    \nframe=   10 fps=0.4 q=38.9 size=       0KiB time=00:00:00.33 bitrate=   1.1kbits/s speed=0.0127x elapsed=0:00:26.15    \nframe=   10 fps=0.4 q=38.9 size=       0KiB time=00:00:00.33 bitrate=   1.1kbits/s speed=0.0125x elapsed=0:00:26.68    \nframe=   11 fps=0.4 q=32.5 size=       0KiB time=00:00:00.37 bitrate=   0.9kbits/s speed=0.0138x elapsed=0:00:27.18    \nframe=   11 fps=0.4 q=32.5 size=       0KiB time=00:00:00.37 bitrate=   0.9kbits/s speed=0.0135x elapsed=0:00:27.71    \nframe=   12 fps=0.4 q=36.0 size=       0KiB time=00:00:00.41 bitrate=   0.8kbits/s speed=0.0148x elapsed=0:00:28.23    \nframe=   12 fps=0.4 q=36.0 size=       0KiB time=00:00:00.41 bitrate=   0.8kbits/s speed=0.0145x elapsed=0:00:28.74    \nframe=   12 fps=0.4 q=36.0 size=       0KiB time=00:00:00.41 bitrate=   0.8kbits/s speed=0.0142x elapsed=0:00:29.29    \nframe=   12 fps=0.4 q=36.0 size=       0KiB time=00:00:00.41 bitrate=   0.8kbits/s speed=0.014x elapsed=0:00:29.80    \nframe=   12 fps=0.4 q=36.0 size=       0KiB time=00:00:00.41 bitrate=   0.8kbits/s speed=0.0137x elapsed=0:00:30.32    \nframe=   12 fps=0.4 q=36.0 size=       0KiB time=00:00:00.41 bitrate=   0.8kbits/s speed=0.0135x elapsed=0:00:30.84    \nframe=   13 fps=0.4 q=38.0 size=       0KiB time=00:00:00.45 bitrate=   0.8kbits/s speed=0.0146x elapsed=0:00:31.36    \nframe=   13 fps=0.4 q=38.0 size=       0KiB time=00:00:00.45 bitrate=   0.8kbits/s speed=0.0144x elapsed=0:00:31.88    \nframe=   13 fps=0.4 q=38.0 size=       0KiB time=00:00:00.45 bitrate=   0.8kbits/s speed=0.0141x elapsed=0:00:32.41    \nframe=   13 fps=0.4 q=38.0 size=       0KiB time=00:00:00.45 bitrate=   0.8kbits/s speed=0.0139x elapsed=0:00:32.93    \nframe=   14 fps=0.4 q=37.7 size=       0KiB time=00:00:00.50 bitrate=   0.7kbits/s speed=0.0149x elapsed=0:00:33.45    \nframe=   14 fps=0.4 q=37.7 size=       0KiB time=00:00:00.50 bitrate=   0.7kbits/s speed=0.0147x elapsed=0:00:33.99    \nframe=   14 fps=0.4 q=37.7 size=       0KiB time=00:00:00.50 bitrate=   0.7kbits/s speed=0.0145x elapsed=0:00:34.51    \nframe=   14 fps=0.4 q=37.7 size=       0KiB time=00:00:00.50 bitrate=   0.7kbits/s speed=0.0143x elapsed=0:00:35.02    \nframe=   14 fps=0.4 q=37.7 size=       0KiB time=00:00:00.50 bitrate=   0.7kbits/s speed=0.0141x elapsed=0:00:35.55    \nframe=   14 fps=0.4 q=37.7 size=       0KiB time=00:00:00.50 bitrate=   0.7kbits/s speed=0.0139x elapsed=0:00:36.07    \nframe=   15 fps=0.4 q=32.6 size=       0KiB time=00:00:00.54 bitrate=   0.6kbits/s speed=0.0148x elapsed=0:00:36.60    \nframe=   15 fps=0.4 q=32.6 size=       0KiB time=00:00:00.54 bitrate=   0.6kbits/s speed=0.0146x elapsed=0:00:37.13    \nframe=   16 fps=0.4 q=34.5 size=       0KiB time=00:00:00.58 bitrate=   0.6kbits/s speed=0.0155x elapsed=0:00:37.66    \nframe=   16 fps=0.4 q=34.5 size=       0KiB time=00:00:00.58 bitrate=   0.6kbits/s speed=0.0153x elapsed=0:00:38.19    \nframe=   16 fps=0.4 q=34.5 size=       0KiB time=00:00:00.58 bitrate=   0.6kbits/s speed=0.0151x elapsed=0:00:38.71    \nframe=   16 fps=0.4 q=34.5 size=       0KiB time=00:00:00.58 bitrate=   0.6kbits/s speed=0.0149x elapsed=0:00:39.22    \nframe=   16 fps=0.4 q=34.5 size=       0KiB time=00:00:00.58 bitrate=   0.6kbits/s speed=0.0147x elapsed=0:00:39.75    \nframe=   17 fps=0.4 q=37.2 size=       0KiB time=00:00:00.62 bitrate=   0.6kbits/s speed=0.0155x elapsed=0:00:40.26    \nframe=   17 fps=0.4 q=37.2 size=       0KiB time=00:00:00.62 bitrate=   0.6kbits/s speed=0.0153x elapsed=0:00:40.78    \nframe=   17 fps=0.4 q=37.2 size=       0KiB time=00:00:00.62 bitrate=   0.6kbits/s speed=0.0151x elapsed=0:00:41.29    \nframe=   17 fps=0.4 q=37.2 size=       0KiB time=00:00:00.62 bitrate=   0.6kbits/s speed=0.0149x elapsed=0:00:41.83    \nframe=   17 fps=0.4 q=37.2 size=       0KiB time=00:00:00.62 bitrate=   0.6kbits/s speed=0.0148x elapsed=0:00:42.36    \nframe=   18 fps=0.4 q=37.4 size=       0KiB time=00:00:00.66 bitrate=   0.5kbits/s speed=0.0155x elapsed=0:00:42.89    \nframe=   18 fps=0.4 q=37.4 size=       0KiB time=00:00:00.66 bitrate=   0.5kbits/s speed=0.0153x elapsed=0:00:43.44    \nframe=   18 fps=0.4 q=37.4 size=       0KiB time=00:00:00.66 bitrate=   0.5kbits/s speed=0.0152x elapsed=0:00:43.96    \nframe=   18 fps=0.4 q=37.4 size=       0KiB time=00:00:00.66 bitrate=   0.5kbits/s speed=0.015x elapsed=0:00:44.48    \nframe=   18 fps=0.4 q=37.4 size=       0KiB time=00:00:00.66 bitrate=   0.5kbits/s speed=0.0148x elapsed=0:00:45.00    \nframe=   19 fps=0.4 q=32.4 size=       0KiB time=00:00:00.70 bitrate=   0.5kbits/s speed=0.0156x elapsed=0:00:45.51    \nframe=   19 fps=0.4 q=32.4 size=       0KiB time=00:00:00.70 bitrate=   0.5kbits/s speed=0.0154x elapsed=0:00:46.03    \nframe=   19 fps=0.4 q=32.4 size=       0KiB time=00:00:00.70 bitrate=   0.5kbits/s speed=0.0152x elapsed=0:00:46.56    \nframe=   19 fps=0.4 q=32.4 size=       0KiB time=00:00:00.70 bitrate=   0.5kbits/s speed=0.015x elapsed=0:00:47.07    \nframe=   19 fps=0.4 q=32.4 size=       0KiB time=00:00:00.70 bitrate=   0.5kbits/s speed=0.0149x elapsed=0:00:47.59    \nframe=   20 fps=0.4 q=32.6 size=       0KiB time=00:00:00.75 bitrate=   0.5kbits/s speed=0.0156x elapsed=0:00:48.10    \nframe=   20 fps=0.4 q=32.6 size=       0KiB time=00:00:00.75 bitrate=   0.5kbits/s speed=0.0154x elapsed=0:00:48.62    \nframe=   20 fps=0.4 q=32.6 size=       0KiB time=00:00:00.75 bitrate=   0.5kbits/s speed=0.0153x elapsed=0:00:49.13    \nframe=   20 fps=0.4 q=32.6 size=       0KiB time=00:00:00.75 bitrate=   0.5kbits/s speed=0.0151x elapsed=0:00:49.65    \nframe=   20 fps=0.4 q=32.6 size=       0KiB time=00:00:00.75 bitrate=   0.5kbits/s speed=0.0149x elapsed=0:00:50.17    \nframe=   20 fps=0.4 q=32.6 size=       0KiB time=00:00:00.75 bitrate=   0.5kbits/s speed=0.0148x elapsed=0:00:50.69    \nframe=   21 fps=0.4 q=37.5 size=       0KiB time=00:00:00.79 bitrate=   0.4kbits/s speed=0.0155x elapsed=0:00:51.20    \nframe=   21 fps=0.4 q=37.5 size=       0KiB time=00:00:00.79 bitrate=   0.4kbits/s speed=0.0153x elapsed=0:00:51.73    \nframe=   21 fps=0.4 q=37.5 size=       0KiB time=00:00:00.79 bitrate=   0.4kbits/s speed=0.0151x elapsed=0:00:52.27    \nframe=   21 fps=0.4 q=37.5 size=       0KiB time=00:00:00.79 bitrate=   0.4kbits/s speed=0.015x elapsed=0:00:52.80    \nframe=   21 fps=0.4 q=37.5 size=       0KiB time=00:00:00.79 bitrate=   0.4kbits/s speed=0.0148x elapsed=0:00:53.31    \nframe=   21 fps=0.4 q=37.5 size=       0KiB time=00:00:00.79 bitrate=   0.4kbits/s speed=0.0147x elapsed=0:00:53.85    \nframe=   22 fps=0.4 q=37.2 size=       0KiB time=00:00:00.83 bitrate=   0.4kbits/s speed=0.0153x elapsed=0:00:54.37    \nframe=   22 fps=0.4 q=37.2 size=       0KiB time=00:00:00.83 bitrate=   0.4kbits/s speed=0.0152x elapsed=0:00:54.88    \nframe=   22 fps=0.4 q=37.2 size=       0KiB time=00:00:00.83 bitrate=   0.4kbits/s speed=0.015x elapsed=0:00:55.41    \nframe=   22 fps=0.4 q=37.2 size=       0KiB time=00:00:00.83 bitrate=   0.4kbits/s speed=0.0149x elapsed=0:00:55.93    \nframe=   22 fps=0.4 q=37.2 size=       0KiB time=00:00:00.83 bitrate=   0.4kbits/s speed=0.0148x elapsed=0:00:56.47    \nframe=   22 fps=0.4 q=37.2 size=       0KiB time=00:00:00.83 bitrate=   0.4kbits/s speed=0.0146x elapsed=0:00:57.00    \nframe=   23 fps=0.4 q=36.9 size=     256KiB time=00:00:00.87 bitrate=2397.1kbits/s speed=0.0152x elapsed=0:00:57.53    \nframe=   23 fps=0.4 q=36.9 size=     256KiB time=00:00:00.87 bitrate=2397.1kbits/s speed=0.0151x elapsed=0:00:58.04    \nframe=   23 fps=0.4 q=36.9 size=     256KiB time=00:00:00.87 bitrate=2397.1kbits/s speed=0.0149x elapsed=0:00:58.56    \nframe=   23 fps=0.4 q=36.9 size=     256KiB time=00:00:00.87 bitrate=2397.1kbits/s speed=0.0148x elapsed=0:00:59.07    \nframe=   24 fps=0.4 q=32.5 size=     256KiB time=00:00:00.91 bitrate=2288.2kbits/s speed=0.0154x elapsed=0:00:59.59    \nframe=   24 fps=0.4 q=32.5 size=     256KiB time=00:00:00.91 bitrate=2288.2kbits/s speed=0.0153x elapsed=0:01:00.10    \nframe=   24 fps=0.4 q=32.5 size=     256KiB time=00:00:00.91 bitrate=2288.2kbits/s speed=0.0151x elapsed=0:01:00.64    \nframe=   25 fps=0.4 q=32.6 size=     256KiB time=00:00:00.95 bitrate=2188.7kbits/s speed=0.0157x elapsed=0:01:01.16    \nframe=   25 fps=0.4 q=32.6 size=     256KiB time=00:00:00.95 bitrate=2188.7kbits/s speed=0.0155x elapsed=0:01:01.68    \nframe=   26 fps=0.4 q=36.8 size=     256KiB time=00:00:00.95 bitrate=2188.7kbits/s speed=0.0154x elapsed=0:01:02.21    \nframe=   26 fps=0.4 q=36.8 size=     256KiB time=00:00:01.00 bitrate=2097.5kbits/s speed=0.0159x elapsed=0:01:02.74    \nframe=   26 fps=0.4 q=36.8 size=     256KiB time=00:00:01.00 bitrate=2097.5kbits/s speed=0.0158x elapsed=0:01:03.26    \nframe=   26 fps=0.4 q=36.8 size=     256KiB time=00:00:01.00 bitrate=2097.5kbits/s speed=0.0157x elapsed=0:01:03.78    \nframe=   26 fps=0.4 q=36.8 size=     256KiB time=00:00:01.00 bitrate=2097.5kbits/s speed=0.0156x elapsed=0:01:04.29    \nframe=   26 fps=0.4 q=36.8 size=     256KiB time=00:00:01.00 bitrate=2097.5kbits/s speed=0.0154x elapsed=0:01:04.81    \nframe=   26 fps=0.4 q=36.8 size=     256KiB time=00:00:01.00 bitrate=2097.5kbits/s speed=0.0153x elapsed=0:01:05.33    \nframe=   26 fps=0.4 q=36.8 size=     256KiB time=00:00:01.00 bitrate=2097.5kbits/s speed=0.0152x elapsed=0:01:05.85    \nframe=   27 fps=0.4 q=36.8 size=     256KiB time=00:00:01.04 bitrate=2013.6kbits/s speed=0.0157x elapsed=0:01:06.37    \nframe=   27 fps=0.4 q=36.8 size=     256KiB time=00:00:01.04 bitrate=2013.6kbits/s speed=0.0156x elapsed=0:01:06.92    \nframe=   27 fps=0.4 q=36.8 size=     256KiB time=00:00:01.04 bitrate=2013.6kbits/s speed=0.0154x elapsed=0:01:07.43    \nframe=   27 fps=0.4 q=36.8 size=     256KiB time=00:00:01.04 bitrate=2013.6kbits/s speed=0.0153x elapsed=0:01:07.97    \nframe=   28 fps=0.4 q=37.0 size=     256KiB time=00:00:01.08 bitrate=1936.2kbits/s speed=0.0158x elapsed=0:01:08.49    \nframe=   28 fps=0.4 q=37.0 size=     256KiB time=00:00:01.08 bitrate=1936.2kbits/s speed=0.0157x elapsed=0:01:09.01    \nframe=   28 fps=0.4 q=37.0 size=     256KiB time=00:00:01.08 bitrate=1936.2kbits/s speed=0.0156x elapsed=0:01:09.54    \nframe=   28 fps=0.4 q=37.0 size=     256KiB time=00:00:01.08 bitrate=1936.2kbits/s speed=0.0155x elapsed=0:01:10.07    \nframe=   29 fps=0.4 q=32.3 size=     256KiB time=00:00:01.12 bitrate=1864.4kbits/s speed=0.0159x elapsed=0:01:10.61    \nframe=   29 fps=0.4 q=32.3 size=     256KiB time=00:00:01.12 bitrate=1864.4kbits/s speed=0.0158x elapsed=0:01:11.14    \nframe=   30 fps=0.4 q=34.4 size=     256KiB time=00:00:01.16 bitrate=1797.9kbits/s speed=0.0163x elapsed=0:01:11.66    \nframe=   30 fps=0.4 q=34.4 size=     256KiB time=00:00:01.16 bitrate=1797.9kbits/s speed=0.0162x elapsed=0:01:12.18    \nframe=   30 fps=0.4 q=34.4 size=     256KiB time=00:00:01.16 bitrate=1797.9kbits/s speed=0.016x elapsed=0:01:12.72    \nframe=   30 fps=0.4 q=34.4 size=     256KiB time=00:00:01.16 bitrate=1797.9kbits/s speed=0.0159x elapsed=0:01:13.24    \nframe=   30 fps=0.4 q=34.4 size=     256KiB time=00:00:01.16 bitrate=1797.9kbits/s speed=0.0158x elapsed=0:01:13.77    \nframe=   30 fps=0.4 q=34.4 size=     256KiB time=00:00:01.16 bitrate=1797.9kbits/s speed=0.0157x elapsed=0:01:14.31    \nframe=   30 fps=0.4 q=34.4 size=     256KiB time=00:00:01.16 bitrate=1797.9kbits/s speed=0.0156x elapsed=0:01:14.86    \nframe=   30 fps=0.4 q=34.4 size=     256KiB time=00:00:01.16 bitrate=1797.9kbits/s speed=0.0155x elapsed=0:01:15.39    \nframe=   31 fps=0.4 q=36.8 size=     256KiB time=00:00:01.20 bitrate=1735.9kbits/s speed=0.0159x elapsed=0:01:15.92    \nframe=   31 fps=0.4 q=36.8 size=     256KiB time=00:00:01.20 bitrate=1735.9kbits/s speed=0.0158x elapsed=0:01:16.44    \nframe=   31 fps=0.4 q=36.8 size=     256KiB time=00:00:01.20 bitrate=1735.9kbits/s speed=0.0157x elapsed=0:01:16.96    \nframe=   31 fps=0.4 q=36.8 size=     256KiB time=00:00:01.20 bitrate=1735.9kbits/s speed=0.0156x elapsed=0:01:17.49    \nframe=   31 fps=0.4 q=36.8 size=     256KiB time=00:00:01.20 bitrate=1735.9kbits/s speed=0.0155x elapsed=0:01:18.03    \nframe=   31 fps=0.4 q=36.8 size=     256KiB time=00:00:01.20 bitrate=1735.9kbits/s speed=0.0154x elapsed=0:01:18.56    \nframe=   31 fps=0.4 q=36.8 size=     256KiB time=00:00:01.20 bitrate=1735.9kbits/s speed=0.0153x elapsed=0:01:19.08    \nframe=   31 fps=0.4 q=36.8 size=     256KiB time=00:00:01.20 bitrate=1735.9kbits/s speed=0.0152x elapsed=0:01:19.61    \nframe=   32 fps=0.4 q=36.9 size=     256KiB time=00:00:01.25 bitrate=1678.0kbits/s speed=0.0156x elapsed=0:01:20.13    \nframe=   32 fps=0.4 q=36.9 size=     256KiB time=00:00:01.25 bitrate=1678.0kbits/s speed=0.0155x elapsed=0:01:20.65    \nframe=   32 fps=0.4 q=36.9 size=     256KiB time=00:00:01.25 bitrate=1678.0kbits/s speed=0.0154x elapsed=0:01:21.19    \nframe=   33 fps=0.4 q=31.9 size=     256KiB time=00:00:01.29 bitrate=1623.9kbits/s speed=0.0158x elapsed=0:01:21.70    \nframe=   34 fps=0.4 q=34.0 size=     256KiB time=00:00:01.33 bitrate=1573.1kbits/s speed=0.0162x elapsed=0:01:22.22    \nframe=   34 fps=0.4 q=34.0 size=     256KiB time=00:00:01.33 bitrate=1573.1kbits/s speed=0.0161x elapsed=0:01:22.73    \nframe=   34 fps=0.4 q=34.0 size=     256KiB time=00:00:01.33 bitrate=1573.1kbits/s speed=0.016x elapsed=0:01:23.25    \nframe=   34 fps=0.4 q=34.0 size=     256KiB time=00:00:01.33 bitrate=1573.1kbits/s speed=0.0159x elapsed=0:01:23.76    \nframe=   35 fps=0.4 q=36.8 size=     256KiB time=00:00:01.37 bitrate=1525.5kbits/s speed=0.0163x elapsed=0:01:24.28    \nframe=   35 fps=0.4 q=36.8 size=     256KiB time=00:00:01.37 bitrate=1525.5kbits/s speed=0.0162x elapsed=0:01:24.80    \nframe=   36 fps=0.4 q=36.9 size=     256KiB time=00:00:01.41 bitrate=1480.6kbits/s speed=0.0166x elapsed=0:01:25.31    \nframe=   37 fps=0.4 q=32.0 size=     256KiB time=00:00:01.45 bitrate=1438.3kbits/s speed=0.017x elapsed=0:01:25.83    \nframe=   37 fps=0.4 q=32.0 size=     256KiB time=00:00:01.45 bitrate=1438.3kbits/s speed=0.0169x elapsed=0:01:26.33    \nframe=   38 fps=0.4 q=33.7 size=     256KiB time=00:00:01.50 bitrate=1398.3kbits/s speed=0.0173x elapsed=0:01:26.85    \nframe=   38 fps=0.4 q=33.7 size=     256KiB time=00:00:01.50 bitrate=1398.3kbits/s speed=0.0172x elapsed=0:01:27.37    \nframe=   39 fps=0.4 q=36.6 size=     256KiB time=00:00:01.54 bitrate=1360.5kbits/s speed=0.0175x elapsed=0:01:27.89    \nframe=   39 fps=0.4 q=36.6 size=     256KiB time=00:00:01.54 bitrate=1360.5kbits/s speed=0.0174x elapsed=0:01:28.41    \nframe=   39 fps=0.4 q=36.6 size=     256KiB time=00:00:01.54 bitrate=1360.5kbits/s speed=0.0173x elapsed=0:01:28.93    \nframe=   40 fps=0.4 q=36.5 size=     256KiB time=00:00:01.58 bitrate=1324.7kbits/s speed=0.0177x elapsed=0:01:29.45    \nframe=   41 fps=0.5 q=32.0 size=     256KiB time=00:00:01.62 bitrate=1290.8kbits/s speed=0.0181x elapsed=0:01:29.97    \nframe=   41 fps=0.5 q=32.0 size=     256KiB time=00:00:01.62 bitrate=1290.8kbits/s speed=0.018x elapsed=0:01:30.48    \nframe=   42 fps=0.5 q=33.6 size=     256KiB time=00:00:01.66 bitrate=1258.5kbits/s speed=0.0183x elapsed=0:01:31.00    \nframe=   42 fps=0.5 q=33.6 size=     256KiB time=00:00:01.66 bitrate=1258.5kbits/s speed=0.0182x elapsed=0:01:31.52    \nframe=   42 fps=0.5 q=33.6 size=     256KiB time=00:00:01.66 bitrate=1258.5kbits/s speed=0.0181x elapsed=0:01:32.02    \nframe=   43 fps=0.5 q=36.4 size=     256KiB time=00:00:01.70 bitrate=1227.8kbits/s speed=0.0185x elapsed=0:01:32.55    \nframe=   43 fps=0.5 q=36.4 size=     256KiB time=00:00:01.70 bitrate=1227.8kbits/s speed=0.0184x elapsed=0:01:33.05    \nframe=   44 fps=0.5 q=36.6 size=     256KiB time=00:00:01.75 bitrate=1198.6kbits/s speed=0.0187x elapsed=0:01:33.57    \nframe=   44 fps=0.5 q=36.6 size=     256KiB time=00:00:01.75 bitrate=1198.6kbits/s speed=0.0186x elapsed=0:01:34.09    \nframe=   45 fps=0.5 q=31.9 size=     512KiB time=00:00:01.79 bitrate=2341.2kbits/s speed=0.0189x elapsed=0:01:34.61    \nframe=   46 fps=0.5 q=33.7 size=     512KiB time=00:00:01.83 bitrate=2288.0kbits/s speed=0.0193x elapsed=0:01:35.14    \nframe=   46 fps=0.5 q=33.7 size=     512KiB time=00:00:01.83 bitrate=2288.0kbits/s speed=0.0192x elapsed=0:01:35.66    \nframe=   46 fps=0.5 q=33.7 size=     512KiB time=00:00:01.83 bitrate=2288.0kbits/s speed=0.0191x elapsed=0:01:36.16    \nframe=   47 fps=0.5 q=36.5 size=     512KiB time=00:00:01.87 bitrate=2237.1kbits/s speed=0.0194x elapsed=0:01:36.68    \nframe=   47 fps=0.5 q=36.5 size=     512KiB time=00:00:01.87 bitrate=2237.1kbits/s speed=0.0193x elapsed=0:01:37.21    \nframe=   48 fps=0.5 q=36.8 size=     512KiB time=00:00:01.91 bitrate=2188.5kbits/s speed=0.0196x elapsed=0:01:37.74    \nframe=   49 fps=0.5 q=31.8 size=     512KiB time=00:00:01.95 bitrate=2142.0kbits/s speed=0.0199x elapsed=0:01:38.25    \nframe=   50 fps=0.5 q=33.9 size=     512KiB time=00:00:02.00 bitrate=2097.3kbits/s speed=0.0202x elapsed=0:01:38.76    \nframe=   50 fps=0.5 q=33.9 size=     512KiB time=00:00:02.00 bitrate=2097.3kbits/s speed=0.0201x elapsed=0:01:39.28    \nframe=   51 fps=0.5 q=36.7 size=     512KiB time=00:00:02.04 bitrate=2054.5kbits/s speed=0.0205x elapsed=0:01:39.79    \nframe=   51 fps=0.5 q=36.7 size=     512KiB time=00:00:02.04 bitrate=2054.5kbits/s speed=0.0204x elapsed=0:01:40.32    \nframe=   52 fps=0.5 q=36.3 size=     512KiB time=00:00:02.08 bitrate=2013.4kbits/s speed=0.0207x elapsed=0:01:40.82    \nframe=   52 fps=0.5 q=36.3 size=     512KiB time=00:00:02.08 bitrate=2013.4kbits/s speed=0.0206x elapsed=0:01:41.35    \nframe=   53 fps=0.5 q=32.1 size=     512KiB time=00:00:02.12 bitrate=1974.0kbits/s speed=0.0209x elapsed=0:01:41.86    \nframe=   54 fps=0.5 q=33.7 size=     512KiB time=00:00:02.16 bitrate=1936.0kbits/s speed=0.0212x elapsed=0:01:42.37    \nframe=   54 fps=0.5 q=33.7 size=     512KiB time=00:00:02.16 bitrate=1936.0kbits/s speed=0.0211x elapsed=0:01:42.89    \nframe=   55 fps=0.5 q=36.3 size=     512KiB time=00:00:02.20 bitrate=1899.5kbits/s speed=0.0214x elapsed=0:01:43.40    \nframe=   56 fps=0.5 q=36.2 size=     512KiB time=00:00:02.25 bitrate=1864.3kbits/s speed=0.0217x elapsed=0:01:43.92    \nframe=   56 fps=0.5 q=36.2 size=     512KiB time=00:00:02.25 bitrate=1864.3kbits/s speed=0.0215x elapsed=0:01:44.44    \nframe=   57 fps=0.5 q=32.1 size=     512KiB time=00:00:02.29 bitrate=1830.4kbits/s speed=0.0218x elapsed=0:01:44.95    \nframe=   58 fps=0.5 q=34.0 size=     512KiB time=00:00:02.33 bitrate=1797.7kbits/s speed=0.0221x elapsed=0:01:45.46    \nframe=   58 fps=0.5 q=34.0 size=     512KiB time=00:00:02.33 bitrate=1797.7kbits/s speed=0.022x elapsed=0:01:45.98    \nframe=   59 fps=0.6 q=36.2 size=     512KiB time=00:00:02.37 bitrate=1766.2kbits/s speed=0.0223x elapsed=0:01:46.50    \nframe=   59 fps=0.6 q=36.2 size=     512KiB time=00:00:02.37 bitrate=1766.2kbits/s speed=0.0222x elapsed=0:01:47.02    \nframe=   60 fps=0.6 q=36.6 size=     512KiB time=00:00:02.41 bitrate=1735.7kbits/s speed=0.0225x elapsed=0:01:47.53    \nframe=   61 fps=0.6 q=31.5 size=     512KiB time=00:00:02.45 bitrate=1706.3kbits/s speed=0.0228x elapsed=0:01:48.05    \nframe=   62 fps=0.6 q=33.6 size=     512KiB time=00:00:02.50 bitrate=1677.9kbits/s speed=0.023x elapsed=0:01:48.56    \nframe=   62 fps=0.6 q=33.6 size=     512KiB time=00:00:02.50 bitrate=1677.9kbits/s speed=0.0229x elapsed=0:01:49.07    \nframe=   63 fps=0.6 q=36.2 size=     512KiB time=00:00:02.54 bitrate=1650.4kbits/s speed=0.0232x elapsed=0:01:49.59    \nframe=   63 fps=0.6 q=36.2 size=     512KiB time=00:00:02.54 bitrate=1650.4kbits/s speed=0.0231x elapsed=0:01:50.11    \nframe=   64 fps=0.6 q=36.3 size=     512KiB time=00:00:02.58 bitrate=1623.7kbits/s speed=0.0234x elapsed=0:01:50.62    \nframe=   64 fps=0.6 q=36.3 size=     512KiB time=00:00:02.58 bitrate=1623.7kbits/s speed=0.0232x elapsed=0:01:51.14    \nframe=   65 fps=0.6 q=31.8 size=     768KiB time=00:00:02.62 bitrate=2396.9kbits/s speed=0.0235x elapsed=0:01:51.67    \nframe=   66 fps=0.6 q=33.6 size=     768KiB time=00:00:02.66 bitrate=2359.4kbits/s speed=0.0238x elapsed=0:01:52.18    \nframe=   67 fps=0.6 q=36.3 size=     768KiB time=00:00:02.70 bitrate=2323.1kbits/s speed=0.024x elapsed=0:01:52.71    \nframe=   67 fps=0.6 q=36.3 size=     768KiB time=00:00:02.70 bitrate=2323.1kbits/s speed=0.0239x elapsed=0:01:53.21    \nframe=   68 fps=0.6 q=36.3 size=     768KiB time=00:00:02.75 bitrate=2287.9kbits/s speed=0.0242x elapsed=0:01:53.72    \nframe=   68 fps=0.6 q=36.3 size=     768KiB time=00:00:02.75 bitrate=2287.9kbits/s speed=0.0241x elapsed=0:01:54.24    \nframe=   69 fps=0.6 q=31.7 size=     768KiB time=00:00:02.79 bitrate=2253.8kbits/s speed=0.0243x elapsed=0:01:54.76    \nframe=   70 fps=0.6 q=33.7 size=     768KiB time=00:00:02.83 bitrate=2220.6kbits/s speed=0.0246x elapsed=0:01:55.29    \nframe=   70 fps=0.6 q=33.7 size=     768KiB time=00:00:02.83 bitrate=2220.6kbits/s speed=0.0245x elapsed=0:01:55.80    \nframe=   70 fps=0.6 q=33.7 size=     768KiB time=00:00:02.83 bitrate=2220.6kbits/s speed=0.0244x elapsed=0:01:56.31    \nframe=   71 fps=0.6 q=36.0 size=     768KiB time=00:00:02.87 bitrate=2188.5kbits/s speed=0.0246x elapsed=0:01:56.83    \nframe=   71 fps=0.6 q=36.0 size=     768KiB time=00:00:02.87 bitrate=2188.5kbits/s speed=0.0245x elapsed=0:01:57.34    \nframe=   72 fps=0.6 q=36.0 size=     768KiB time=00:00:02.91 bitrate=2157.2kbits/s speed=0.0247x elapsed=0:01:57.86    \nframe=   73 fps=0.6 q=31.5 size=     768KiB time=00:00:02.95 bitrate=2126.8kbits/s speed=0.025x elapsed=0:01:58.37    \nframe=   74 fps=0.6 q=33.5 size=     768KiB time=00:00:03.00 bitrate=2097.3kbits/s speed=0.0252x elapsed=0:01:58.89    \nframe=   74 fps=0.6 q=33.5 size=     768KiB time=00:00:03.00 bitrate=2097.3kbits/s speed=0.0251x elapsed=0:01:59.40    \nframe=   75 fps=0.6 q=36.1 size=     768KiB time=00:00:03.04 bitrate=2068.5kbits/s speed=0.0254x elapsed=0:01:59.91    \nframe=   75 fps=0.6 q=36.1 size=     768KiB time=00:00:03.04 bitrate=2068.5kbits/s speed=0.0253x elapsed=0:02:00.44    \nframe=   76 fps=0.6 q=36.0 size=     768KiB time=00:00:03.08 bitrate=2040.6kbits/s speed=0.0255x elapsed=0:02:00.94    \nframe=   76 fps=0.6 q=36.0 size=     768KiB time=00:00:03.08 bitrate=2040.6kbits/s speed=0.0254x elapsed=0:02:01.46    \nframe=   77 fps=0.6 q=31.2 size=     768KiB time=00:00:03.12 bitrate=2013.4kbits/s speed=0.0256x elapsed=0:02:01.98    \nframe=   78 fps=0.6 q=33.4 size=     768KiB time=00:00:03.16 bitrate=1986.9kbits/s speed=0.0259x elapsed=0:02:02.49    \nframe=   78 fps=0.6 q=33.4 size=     768KiB time=00:00:03.16 bitrate=1986.9kbits/s speed=0.0257x elapsed=0:02:03.01    \nframe=   79 fps=0.6 q=35.9 size=     768KiB time=00:00:03.20 bitrate=1961.1kbits/s speed=0.026x elapsed=0:02:03.53    \nframe=   79 fps=0.6 q=35.9 size=     768KiB time=00:00:03.20 bitrate=1961.1kbits/s speed=0.0259x elapsed=0:02:04.04    \nframe=   80 fps=0.6 q=35.8 size=     768KiB time=00:00:03.25 bitrate=1935.9kbits/s speed=0.0261x elapsed=0:02:04.56    \nframe=   81 fps=0.6 q=31.3 size=     768KiB time=00:00:03.29 bitrate=1911.4kbits/s speed=0.0263x elapsed=0:02:05.07    \nframe=   82 fps=0.7 q=33.3 size=     768KiB time=00:00:03.33 bitrate=1887.5kbits/s speed=0.0265x elapsed=0:02:05.59    \nframe=   82 fps=0.7 q=33.3 size=     768KiB time=00:00:03.33 bitrate=1887.5kbits/s speed=0.0264x elapsed=0:02:06.10    \nframe=   83 fps=0.7 q=35.9 size=     768KiB time=00:00:03.37 bitrate=1864.2kbits/s speed=0.0267x elapsed=0:02:06.64    \nframe=   83 fps=0.7 q=35.9 size=     768KiB time=00:00:03.37 bitrate=1864.2kbits/s speed=0.0265x elapsed=0:02:07.16    \nframe=   84 fps=0.7 q=35.9 size=     768KiB time=00:00:03.41 bitrate=1841.5kbits/s speed=0.0268x elapsed=0:02:07.68    \nframe=   85 fps=0.7 q=31.1 size=    1024KiB time=00:00:03.45 bitrate=2425.7kbits/s speed=0.027x elapsed=0:02:08.18    \nframe=   85 fps=0.7 q=31.1 size=    1024KiB time=00:00:03.45 bitrate=2425.7kbits/s speed=0.0269x elapsed=0:02:08.69    \nframe=   86 fps=0.7 q=34.3 size=    1024KiB time=00:00:03.50 bitrate=2396.8kbits/s speed=0.0271x elapsed=0:02:09.21    \nframe=   87 fps=0.7 q=36.0 size=    1024KiB time=00:00:03.54 bitrate=2368.6kbits/s speed=0.0273x elapsed=0:02:09.73    \nframe=   87 fps=0.7 q=36.0 size=    1024KiB time=00:00:03.54 bitrate=2368.6kbits/s speed=0.0272x elapsed=0:02:10.25    \nframe=   88 fps=0.7 q=35.7 size=    1024KiB time=00:00:03.58 bitrate=2341.1kbits/s speed=0.0274x elapsed=0:02:10.77    \nframe=   88 fps=0.7 q=35.7 size=    1024KiB time=00:00:03.58 bitrate=2341.1kbits/s speed=0.0273x elapsed=0:02:11.27    \nframe=   89 fps=0.7 q=35.5 size=    1024KiB time=00:00:03.62 bitrate=2314.2kbits/s speed=0.0275x elapsed=0:02:11.80    \nframe=   89 fps=0.7 q=35.5 size=    1024KiB time=00:00:03.62 bitrate=2314.2kbits/s speed=0.0274x elapsed=0:02:12.31    \nframe=   90 fps=0.7 q=31.0 size=    1024KiB time=00:00:03.66 bitrate=2287.9kbits/s speed=0.0276x elapsed=0:02:12.83    \nframe=   90 fps=0.7 q=31.0 size=    1024KiB time=00:00:03.66 bitrate=2287.9kbits/s speed=0.0275x elapsed=0:02:13.38    \nframe=   91 fps=0.7 q=31.4 size=    1024KiB time=00:00:03.70 bitrate=2262.2kbits/s speed=0.0277x elapsed=0:02:13.92    \nframe=   91 fps=0.7 q=31.4 size=    1024KiB time=00:00:03.70 bitrate=2262.2kbits/s speed=0.0276x elapsed=0:02:14.50    \nframe=   91 fps=0.7 q=31.4 size=    1024KiB time=00:00:03.70 bitrate=2262.2kbits/s speed=0.0275x elapsed=0:02:15.02    \nframe=   91 fps=0.7 q=31.4 size=    1024KiB time=00:00:03.70 bitrate=2262.2kbits/s speed=0.0274x elapsed=0:02:15.55    \nframe=   92 fps=0.7 q=36.1 size=    1024KiB time=00:00:03.75 bitrate=2237.1kbits/s speed=0.0276x elapsed=0:02:16.09    \nframe=   92 fps=0.7 q=36.1 size=    1024KiB time=00:00:03.75 bitrate=2237.1kbits/s speed=0.0274x elapsed=0:02:16.62    \nframe=   93 fps=0.7 q=35.9 size=    1024KiB time=00:00:03.79 bitrate=2212.5kbits/s speed=0.0276x elapsed=0:02:17.13    \nframe=   93 fps=0.7 q=35.9 size=    1024KiB time=00:00:03.79 bitrate=2212.5kbits/s speed=0.0275x elapsed=0:02:17.67    \nframe=   93 fps=0.7 q=35.9 size=    1024KiB time=00:00:03.79 bitrate=2212.5kbits/s speed=0.0274x elapsed=0:02:18.18    \nframe=   93 fps=0.7 q=35.9 size=    1024KiB time=00:00:03.79 bitrate=2212.5kbits/s speed=0.0273x elapsed=0:02:18.70    \nframe=   93 fps=0.7 q=35.9 size=    1024KiB time=00:00:03.79 bitrate=2212.5kbits/s speed=0.0272x elapsed=0:02:19.23    \nframe=   93 fps=0.7 q=35.9 size=    1024KiB time=00:00:03.79 bitrate=2212.5kbits/s speed=0.0271x elapsed=0:02:19.75    \nframe=   93 fps=0.7 q=35.9 size=    1024KiB time=00:00:03.79 bitrate=2212.5kbits/s speed=0.027x elapsed=0:02:20.27    \nframe=   93 fps=0.7 q=35.9 size=    1024KiB time=00:00:03.79 bitrate=2212.5kbits/s speed=0.0269x elapsed=0:02:20.80    \nframe=   94 fps=0.7 q=36.1 size=    1024KiB time=00:00:03.83 bitrate=2188.4kbits/s speed=0.0271x elapsed=0:02:21.30    \nframe=   94 fps=0.7 q=36.1 size=    1024KiB time=00:00:03.83 bitrate=2188.4kbits/s speed=0.027x elapsed=0:02:21.83    \nframe=   94 fps=0.7 q=36.1 size=    1024KiB time=00:00:03.83 bitrate=2188.4kbits/s speed=0.0269x elapsed=0:02:22.35    \nframe=   95 fps=0.7 q=31.4 size=    1024KiB time=00:00:03.87 bitrate=2164.9kbits/s speed=0.0271x elapsed=0:02:22.89    \nframe=   95 fps=0.7 q=31.4 size=    1024KiB time=00:00:03.87 bitrate=2164.9kbits/s speed=0.027x elapsed=0:02:23.40    \nframe=   95 fps=0.7 q=31.4 size=    1024KiB time=00:00:03.87 bitrate=2164.9kbits/s speed=0.0269x elapsed=0:02:23.92    \nframe=   95 fps=0.7 q=31.4 size=    1024KiB time=00:00:03.87 bitrate=2164.9kbits/s speed=0.0268x elapsed=0:02:24.46    \nframe=   96 fps=0.7 q=33.6 size=    1024KiB time=00:00:03.91 bitrate=2141.9kbits/s speed=0.027x elapsed=0:02:24.98    \nframe=   96 fps=0.7 q=33.6 size=    1024KiB time=00:00:03.91 bitrate=2141.9kbits/s speed=0.0269x elapsed=0:02:25.51    \nframe=   97 fps=0.7 q=36.0 size=    1024KiB time=00:00:03.95 bitrate=2119.3kbits/s speed=0.0271x elapsed=0:02:26.05    \nframe=   97 fps=0.7 q=36.0 size=    1024KiB time=00:00:03.95 bitrate=2119.3kbits/s speed=0.027x elapsed=0:02:26.59    \nframe=   97 fps=0.7 q=36.0 size=    1024KiB time=00:00:03.95 bitrate=2119.3kbits/s speed=0.0269x elapsed=0:02:27.13    \nframe=   97 fps=0.7 q=36.0 size=    1024KiB time=00:00:03.95 bitrate=2119.3kbits/s speed=0.0268x elapsed=0:02:27.65    \nframe=   97 fps=0.7 q=36.0 size=    1024KiB time=00:00:03.95 bitrate=2119.3kbits/s speed=0.0267x elapsed=0:02:28.17    \nframe=   97 fps=0.7 q=36.0 size=    1024KiB time=00:00:03.95 bitrate=2119.3kbits/s speed=0.0266x elapsed=0:02:28.70    \nframe=   97 fps=0.7 q=36.0 size=    1024KiB time=00:00:03.95 bitrate=2119.3kbits/s speed=0.0265x elapsed=0:02:29.22    \nframe=   97 fps=0.6 q=36.0 size=    1024KiB time=00:00:03.95 bitrate=2119.3kbits/s speed=0.0264x elapsed=0:02:29.73    \nframe=   97 fps=0.6 q=36.0 size=    1024KiB time=00:00:03.95 bitrate=2119.3kbits/s speed=0.0263x elapsed=0:02:30.25    \nframe=   98 fps=0.6 q=36.0 size=    1024KiB time=00:00:04.00 bitrate=2097.2kbits/s speed=0.0265x elapsed=0:02:30.78    \nframe=   99 fps=0.7 q=31.3 size=    1024KiB time=00:00:04.04 bitrate=2075.6kbits/s speed=0.0267x elapsed=0:02:31.33    \nframe=   99 fps=0.7 q=31.3 size=    1024KiB time=00:00:04.04 bitrate=2075.6kbits/s speed=0.0266x elapsed=0:02:31.85    \nframe=   99 fps=0.6 q=31.3 size=    1024KiB time=00:00:04.04 bitrate=2075.6kbits/s speed=0.0265x elapsed=0:02:32.39    \nframe=  100 fps=0.7 q=33.6 size=    1024KiB time=00:00:04.08 bitrate=2054.4kbits/s speed=0.0267x elapsed=0:02:32.92    \nframe=  101 fps=0.7 q=36.1 size=    1024KiB time=00:00:04.12 bitrate=2033.7kbits/s speed=0.0269x elapsed=0:02:33.46    \nframe=  101 fps=0.7 q=36.1 size=    1024KiB time=00:00:04.12 bitrate=2033.7kbits/s speed=0.0268x elapsed=0:02:33.99    \nframe=  101 fps=0.7 q=36.1 size=    1024KiB time=00:00:04.12 bitrate=2033.7kbits/s speed=0.0267x elapsed=0:02:34.50    \nframe=  101 fps=0.7 q=36.1 size=    1024KiB time=00:00:04.12 bitrate=2033.7kbits/s speed=0.0266x elapsed=0:02:35.04    \nframe=  101 fps=0.6 q=36.1 size=    1024KiB time=00:00:04.12 bitrate=2033.7kbits/s speed=0.0265x elapsed=0:02:35.57    \nframe=  102 fps=0.7 q=36.1 size=    1024KiB time=00:00:04.16 bitrate=2013.4kbits/s speed=0.0267x elapsed=0:02:36.11    \nframe=  102 fps=0.7 q=36.1 size=    1024KiB time=00:00:04.16 bitrate=2013.4kbits/s speed=0.0266x elapsed=0:02:36.64    \nframe=  102 fps=0.6 q=36.1 size=    1024KiB time=00:00:04.16 bitrate=2013.4kbits/s speed=0.0265x elapsed=0:02:37.17    \nframe=  102 fps=0.6 q=36.1 size=    1024KiB time=00:00:04.16 bitrate=2013.4kbits/s speed=0.0264x elapsed=0:02:37.71    \nframe=  102 fps=0.6 q=36.1 size=    1024KiB time=00:00:04.16 bitrate=2013.4kbits/s speed=0.0263x elapsed=0:02:38.24    \nframe=  102 fps=0.6 q=36.1 size=    1024KiB time=00:00:04.16 bitrate=2013.4kbits/s speed=0.0262x elapsed=0:02:38.79    \nframe=  103 fps=0.6 q=31.1 size=    1024KiB time=00:00:04.20 bitrate=1993.4kbits/s speed=0.0264x elapsed=0:02:39.33    \nframe=  104 fps=0.7 q=33.4 size=    1280KiB time=00:00:04.25 bitrate=2467.3kbits/s speed=0.0266x elapsed=0:02:39.85    \nframe=  104 fps=0.6 q=33.4 size=    1280KiB time=00:00:04.25 bitrate=2467.3kbits/s speed=0.0265x elapsed=0:02:40.39    \nframe=  104 fps=0.6 q=33.4 size=    1280KiB time=00:00:04.25 bitrate=2467.3kbits/s speed=0.0264x elapsed=0:02:40.92    \nframe=  104 fps=0.6 q=33.4 size=    1280KiB time=00:00:04.25 bitrate=2467.3kbits/s speed=0.0263x elapsed=0:02:41.45    \nframe=  105 fps=0.6 q=35.9 size=    1280KiB time=00:00:04.29 bitrate=2443.4kbits/s speed=0.0265x elapsed=0:02:41.98    \nframe=  105 fps=0.6 q=35.9 size=    1280KiB time=00:00:04.29 bitrate=2443.4kbits/s speed=0.0264x elapsed=0:02:42.50    \nframe=  105 fps=0.6 q=35.9 size=    1280KiB time=00:00:04.29 bitrate=2443.4kbits/s speed=0.0263x elapsed=0:02:43.02    \nframe=  105 fps=0.6 q=35.9 size=    1280KiB time=00:00:04.29 bitrate=2443.4kbits/s speed=0.0262x elapsed=0:02:43.54    \nframe=  105 fps=0.6 q=35.9 size=    1280KiB time=00:00:04.29 bitrate=2443.4kbits/s speed=0.0262x elapsed=0:02:44.07    \nframe=  105 fps=0.6 q=35.9 size=    1280KiB time=00:00:04.29 bitrate=2443.4kbits/s speed=0.0261x elapsed=0:02:44.59    \nframe=  106 fps=0.6 q=35.6 size=    1280KiB time=00:00:04.33 bitrate=2419.9kbits/s speed=0.0262x elapsed=0:02:45.10    \nframe=  106 fps=0.6 q=35.6 size=    1280KiB time=00:00:04.33 bitrate=2419.9kbits/s speed=0.0262x elapsed=0:02:45.63    \nframe=  107 fps=0.6 q=31.1 size=    1280KiB time=00:00:04.37 bitrate=2396.8kbits/s speed=0.0263x elapsed=0:02:46.15    \nframe=  107 fps=0.6 q=31.1 size=    1280KiB time=00:00:04.37 bitrate=2396.8kbits/s speed=0.0262x elapsed=0:02:46.67    \nframe=  107 fps=0.6 q=31.1 size=    1280KiB time=00:00:04.37 bitrate=2396.8kbits/s speed=0.0262x elapsed=0:02:47.20    \nframe=  107 fps=0.6 q=31.1 size=    1280KiB time=00:00:04.37 bitrate=2396.8kbits/s speed=0.0261x elapsed=0:02:47.71    \nframe=  108 fps=0.6 q=33.3 size=    1280KiB time=00:00:04.41 bitrate=2374.2kbits/s speed=0.0263x elapsed=0:02:48.23    \nframe=  108 fps=0.6 q=33.3 size=    1280KiB time=00:00:04.41 bitrate=2374.2kbits/s speed=0.0262x elapsed=0:02:48.75    \nframe=  108 fps=0.6 q=33.3 size=    1280KiB time=00:00:04.41 bitrate=2374.2kbits/s speed=0.0261x elapsed=0:02:49.26    \nframe=  108 fps=0.6 q=33.3 size=    1280KiB time=00:00:04.41 bitrate=2374.2kbits/s speed=0.026x elapsed=0:02:49.79    \nframe=  108 fps=0.6 q=33.3 size=    1280KiB time=00:00:04.41 bitrate=2374.2kbits/s speed=0.0259x elapsed=0:02:50.34    \nframe=  108 fps=0.6 q=33.3 size=    1280KiB time=00:00:04.41 bitrate=2374.2kbits/s speed=0.0258x elapsed=0:02:50.89    \nframe=  109 fps=0.6 q=35.7 size=    1280KiB time=00:00:04.45 bitrate=2352.0kbits/s speed=0.026x elapsed=0:02:51.41    \nframe=  110 fps=0.6 q=35.6 size=    1280KiB time=00:00:04.50 bitrate=2330.2kbits/s speed=0.0262x elapsed=0:02:51.91    \nframe=  110 fps=0.6 q=35.6 size=    1280KiB time=00:00:04.50 bitrate=2330.2kbits/s speed=0.0261x elapsed=0:02:52.44    \nframe=  110 fps=0.6 q=35.6 size=    1280KiB time=00:00:04.50 bitrate=2330.2kbits/s speed=0.026x elapsed=0:02:52.98    \nframe=  110 fps=0.6 q=35.6 size=    1280KiB time=00:00:04.50 bitrate=2330.2kbits/s speed=0.0259x elapsed=0:02:53.51    \nframe=  110 fps=0.6 q=35.6 size=    1280KiB time=00:00:04.50 bitrate=2330.2kbits/s speed=0.0259x elapsed=0:02:54.02    \nframe=  111 fps=0.6 q=31.0 size=    1280KiB time=00:00:04.54 bitrate=2308.9kbits/s speed=0.026x elapsed=0:02:54.56    \nframe=  111 fps=0.6 q=31.0 size=    1280KiB time=00:00:04.54 bitrate=2308.9kbits/s speed=0.0259x elapsed=0:02:55.08    \nframe=  112 fps=0.6 q=33.2 size=    1280KiB time=00:00:04.58 bitrate=2287.9kbits/s speed=0.0261x elapsed=0:02:55.59    \nframe=  112 fps=0.6 q=33.2 size=    1280KiB time=00:00:04.58 bitrate=2287.9kbits/s speed=0.026x elapsed=0:02:56.10    \nframe=  113 fps=0.6 q=35.9 size=    1280KiB time=00:00:04.62 bitrate=2267.3kbits/s speed=0.0262x elapsed=0:02:56.62    \nframe=  113 fps=0.6 q=35.9 size=    1280KiB time=00:00:04.62 bitrate=2267.3kbits/s speed=0.0261x elapsed=0:02:57.14    \nframe=  114 fps=0.6 q=35.6 size=    1280KiB time=00:00:04.66 bitrate=2247.0kbits/s speed=0.0263x elapsed=0:02:57.66    \nframe=  114 fps=0.6 q=35.6 size=    1280KiB time=00:00:04.66 bitrate=2247.0kbits/s speed=0.0262x elapsed=0:02:58.19    \nframe=  115 fps=0.6 q=31.1 size=    1280KiB time=00:00:04.70 bitrate=2227.1kbits/s speed=0.0263x elapsed=0:02:58.70    \nframe=  116 fps=0.6 q=33.2 size=    1280KiB time=00:00:04.75 bitrate=2207.6kbits/s speed=0.0265x elapsed=0:02:59.21    \nframe=  116 fps=0.6 q=33.2 size=    1280KiB time=00:00:04.75 bitrate=2207.6kbits/s speed=0.0264x elapsed=0:02:59.73    \nframe=  117 fps=0.6 q=35.6 size=    1280KiB time=00:00:04.79 bitrate=2188.4kbits/s speed=0.0266x elapsed=0:03:00.25    \nframe=  118 fps=0.7 q=35.7 size=    1280KiB time=00:00:04.83 bitrate=2169.5kbits/s speed=0.0267x elapsed=0:03:00.75    \nframe=  118 fps=0.7 q=35.7 size=    1280KiB time=00:00:04.83 bitrate=2169.5kbits/s speed=0.0267x elapsed=0:03:01.28    \nframe=  119 fps=0.7 q=31.1 size=    1280KiB time=00:00:04.87 bitrate=2151.0kbits/s speed=0.0268x elapsed=0:03:01.79    \nframe=  120 fps=0.7 q=33.3 size=    1280KiB time=00:00:04.91 bitrate=2132.8kbits/s speed=0.027x elapsed=0:03:02.31    \nframe=  120 fps=0.7 q=33.3 size=    1280KiB time=00:00:04.91 bitrate=2132.8kbits/s speed=0.0269x elapsed=0:03:02.82    \nframe=  120 fps=0.7 q=33.3 size=    1280KiB time=00:00:04.91 bitrate=2132.8kbits/s speed=0.0268x elapsed=0:03:03.34    \nframe=  121 fps=0.7 q=35.9 size=    1280KiB time=00:00:04.95 bitrate=2114.8kbits/s speed=0.027x elapsed=0:03:03.86    \nframe=  121 fps=0.7 q=35.9 size=    1280KiB time=00:00:04.95 bitrate=2114.8kbits/s speed=0.0269x elapsed=0:03:04.37    \nframe=  121 fps=0.7 q=35.9 size=    1280KiB time=00:00:04.95 bitrate=2114.8kbits/s speed=0.0268x elapsed=0:03:04.89    \nframe=  121 fps=0.7 q=35.9 size=    1280KiB time=00:00:04.95 bitrate=2114.8kbits/s speed=0.0267x elapsed=0:03:05.41    \nframe=  122 fps=0.7 q=35.9 size=    1280KiB time=00:00:05.00 bitrate=2097.2kbits/s speed=0.0269x elapsed=0:03:05.93    \nframe=  122 fps=0.7 q=35.9 size=    1280KiB time=00:00:05.00 bitrate=2097.2kbits/s speed=0.0268x elapsed=0:03:06.44    \nframe=  122 fps=0.7 q=35.9 size=    1280KiB time=00:00:05.00 bitrate=2097.2kbits/s speed=0.0267x elapsed=0:03:06.95    \nframe=  123 fps=0.7 q=31.2 size=    1280KiB time=00:00:05.04 bitrate=2079.9kbits/s speed=0.0269x elapsed=0:03:07.46    \nframe=  123 fps=0.7 q=31.2 size=    1280KiB time=00:00:05.04 bitrate=2079.9kbits/s speed=0.0268x elapsed=0:03:07.98    \nframe=  123 fps=0.7 q=31.2 size=    1280KiB time=00:00:05.04 bitrate=2079.9kbits/s speed=0.0267x elapsed=0:03:08.49    \nframe=  124 fps=0.7 q=33.2 size=    1280KiB time=00:00:05.08 bitrate=2062.8kbits/s speed=0.0269x elapsed=0:03:09.00    \nframe=  124 fps=0.7 q=33.2 size=    1280KiB time=00:00:05.08 bitrate=2062.8kbits/s speed=0.0268x elapsed=0:03:09.54    \nframe=  124 fps=0.7 q=33.2 size=    1280KiB time=00:00:05.08 bitrate=2062.8kbits/s speed=0.0267x elapsed=0:03:10.06    \nframe=  124 fps=0.7 q=33.2 size=    1280KiB time=00:00:05.08 bitrate=2062.8kbits/s speed=0.0267x elapsed=0:03:10.60    \nframe=  125 fps=0.7 q=35.9 size=    1536KiB time=00:00:05.12 bitrate=2455.3kbits/s speed=0.0268x elapsed=0:03:11.12    \nframe=  125 fps=0.7 q=35.9 size=    1536KiB time=00:00:05.12 bitrate=2455.3kbits/s speed=0.0267x elapsed=0:03:11.65    \nframe=  125 fps=0.7 q=35.9 size=    1536KiB time=00:00:05.12 bitrate=2455.3kbits/s speed=0.0267x elapsed=0:03:12.17    \nframe=  126 fps=0.7 q=35.8 size=    1536KiB time=00:00:05.16 bitrate=2435.5kbits/s speed=0.0268x elapsed=0:03:12.69    \nframe=  126 fps=0.7 q=35.8 size=    1536KiB time=00:00:05.16 bitrate=2435.5kbits/s speed=0.0267x elapsed=0:03:13.63    \nframe=  127 fps=0.7 q=31.1 size=    1536KiB time=00:00:05.20 bitrate=2416.0kbits/s speed=0.0268x elapsed=0:03:14.24    \nframe=  128 fps=0.7 q=33.2 size=    1536KiB time=00:00:05.25 bitrate=2396.8kbits/s speed=0.027x elapsed=0:03:14.78    \nframe=  128 fps=0.7 q=33.2 size=    1536KiB time=00:00:05.25 bitrate=2396.8kbits/s speed=0.0269x elapsed=0:03:15.31    \nframe=  129 fps=0.7 q=35.7 size=    1536KiB time=00:00:05.29 bitrate=2377.9kbits/s speed=0.027x elapsed=0:03:15.84    \nframe=  129 fps=0.7 q=35.7 size=    1536KiB time=00:00:05.29 bitrate=2377.9kbits/s speed=0.0269x elapsed=0:03:16.36    \nframe=  129 fps=0.7 q=35.7 size=    1536KiB time=00:00:05.29 bitrate=2377.9kbits/s speed=0.0269x elapsed=0:03:16.93    \nframe=  129 fps=0.7 q=35.7 size=    1536KiB time=00:00:05.29 bitrate=2377.9kbits/s speed=0.0268x elapsed=0:03:17.44    \nframe=  129 fps=0.7 q=35.7 size=    1536KiB time=00:00:05.29 bitrate=2377.9kbits/s speed=0.0267x elapsed=0:03:17.98    \nframe=  129 fps=0.6 q=35.7 size=    1536KiB time=00:00:05.29 bitrate=2377.9kbits/s speed=0.0267x elapsed=0:03:18.49    \nframe=  130 fps=0.7 q=35.8 size=    1536KiB time=00:00:05.33 bitrate=2359.4kbits/s speed=0.0268x elapsed=0:03:19.02    \nframe=  130 fps=0.7 q=35.8 size=    1536KiB time=00:00:05.33 bitrate=2359.4kbits/s speed=0.0267x elapsed=0:03:19.54    \nframe=  130 fps=0.6 q=35.8 size=    1536KiB time=00:00:05.33 bitrate=2359.4kbits/s speed=0.0267x elapsed=0:03:20.05    \nframe=  130 fps=0.6 q=35.8 size=    1536KiB time=00:00:05.33 bitrate=2359.4kbits/s speed=0.0266x elapsed=0:03:20.57    \nframe=  131 fps=0.7 q=31.1 size=    1536KiB time=00:00:05.37 bitrate=2341.1kbits/s speed=0.0267x elapsed=0:03:21.12    \nframe=  131 fps=0.6 q=31.1 size=    1536KiB time=00:00:05.37 bitrate=2341.1kbits/s speed=0.0267x elapsed=0:03:21.66    \nframe=  131 fps=0.6 q=31.1 size=    1536KiB time=00:00:05.37 bitrate=2341.1kbits/s speed=0.0266x elapsed=0:03:22.19    \nframe=  132 fps=0.7 q=33.1 size=    1536KiB time=00:00:05.41 bitrate=2323.1kbits/s speed=0.0267x elapsed=0:03:22.73    \nframe=  132 fps=0.6 q=33.1 size=    1536KiB time=00:00:05.41 bitrate=2323.1kbits/s speed=0.0266x elapsed=0:03:23.25    \nframe=  132 fps=0.6 q=33.1 size=    1536KiB time=00:00:05.41 bitrate=2323.1kbits/s speed=0.0266x elapsed=0:03:23.77    \nframe=  132 fps=0.6 q=33.1 size=    1536KiB time=00:00:05.41 bitrate=2323.1kbits/s speed=0.0265x elapsed=0:03:24.29    \nframe=  133 fps=0.6 q=35.7 size=    1536KiB time=00:00:05.45 bitrate=2305.3kbits/s speed=0.0266x elapsed=0:03:24.83    \nframe=  133 fps=0.6 q=35.7 size=    1536KiB time=00:00:05.45 bitrate=2305.3kbits/s speed=0.0266x elapsed=0:03:25.33    \nframe=  133 fps=0.6 q=35.7 size=    1536KiB time=00:00:05.45 bitrate=2305.3kbits/s speed=0.0265x elapsed=0:03:25.88    \nframe=  133 fps=0.6 q=35.7 size=    1536KiB time=00:00:05.45 bitrate=2305.3kbits/s speed=0.0264x elapsed=0:03:26.41    \nframe=  133 fps=0.6 q=35.7 size=    1536KiB time=00:00:05.45 bitrate=2305.3kbits/s speed=0.0264x elapsed=0:03:26.94    \nframe=  134 fps=0.6 q=35.6 size=    1536KiB time=00:00:05.50 bitrate=2287.9kbits/s speed=0.0265x elapsed=0:03:27.46    \nframe=  134 fps=0.6 q=35.6 size=    1536KiB time=00:00:05.50 bitrate=2287.9kbits/s speed=0.0264x elapsed=0:03:27.99    \nframe=  134 fps=0.6 q=35.6 size=    1536KiB time=00:00:05.50 bitrate=2287.9kbits/s speed=0.0264x elapsed=0:03:28.52    \nframe=  135 fps=0.6 q=31.9 size=    1536KiB time=00:00:05.54 bitrate=2270.7kbits/s speed=0.0265x elapsed=0:03:29.04    \nframe=  135 fps=0.6 q=31.9 size=    1536KiB time=00:00:05.54 bitrate=2270.7kbits/s speed=0.0264x elapsed=0:03:29.57    \nframe=  136 fps=0.6 q=32.9 size=    1536KiB time=00:00:05.58 bitrate=2253.7kbits/s speed=0.0266x elapsed=0:03:30.11    \nframe=  136 fps=0.6 q=32.9 size=    1536KiB time=00:00:05.58 bitrate=2253.7kbits/s speed=0.0265x elapsed=0:03:30.63    \nframe=  136 fps=0.6 q=32.9 size=    1536KiB time=00:00:05.58 bitrate=2253.7kbits/s speed=0.0264x elapsed=0:03:31.17    \nframe=  137 fps=0.6 q=35.3 size=    1536KiB time=00:00:05.62 bitrate=2237.0kbits/s speed=0.0266x elapsed=0:03:31.69    \nframe=  137 fps=0.6 q=35.3 size=    1536KiB time=00:00:05.62 bitrate=2237.0kbits/s speed=0.0265x elapsed=0:03:32.20    \nframe=  138 fps=0.6 q=35.6 size=    1536KiB time=00:00:05.66 bitrate=2220.6kbits/s speed=0.0266x elapsed=0:03:32.71    \nframe=  139 fps=0.7 q=33.3 size=    1536KiB time=00:00:05.70 bitrate=2204.4kbits/s speed=0.0268x elapsed=0:03:33.23    \nframe=  140 fps=0.7 q=35.3 size=    1536KiB time=00:00:05.75 bitrate=2188.4kbits/s speed=0.0269x elapsed=0:03:33.77    \nframe=  141 fps=0.7 q=26.9 size=    1536KiB time=00:00:05.79 bitrate=2172.6kbits/s speed=0.027x elapsed=0:03:34.28    \nframe=  142 fps=0.7 q=29.9 size=    1792KiB time=00:00:05.83 bitrate=2516.6kbits/s speed=0.0272x elapsed=0:03:34.79    \nframe=  143 fps=0.7 q=35.6 size=    1792KiB time=00:00:05.87 bitrate=2498.8kbits/s speed=0.0273x elapsed=0:03:35.31    \nframe=  145 fps=0.7 q=38.1 size=    1792KiB time=00:00:05.95 bitrate=2463.8kbits/s speed=0.0276x elapsed=0:03:35.82    \nframe=  146 fps=0.7 q=37.6 size=    1792KiB time=00:00:06.00 bitrate=2446.7kbits/s speed=0.0277x elapsed=0:03:36.34    \nframe=  147 fps=0.7 q=29.0 size=    1792KiB time=00:00:06.04 bitrate=2429.9kbits/s speed=0.0279x elapsed=0:03:36.85    \nframe=  148 fps=0.7 q=32.4 size=    1792KiB time=00:00:06.08 bitrate=2413.2kbits/s speed=0.028x elapsed=0:03:37.37    \nframe=  149 fps=0.7 q=33.5 size=    1792KiB time=00:00:06.12 bitrate=2396.8kbits/s speed=0.0281x elapsed=0:03:37.88    \nframe=  150 fps=0.7 q=33.7 size=    1792KiB time=00:00:06.16 bitrate=2380.6kbits/s speed=0.0282x elapsed=0:03:38.40    \nframe=  150 fps=0.7 q=33.7 size=    1792KiB time=00:00:06.16 bitrate=2380.6kbits/s speed=0.0282x elapsed=0:03:38.98    \nframe=  150 fps=0.7 q=33.7 size=    1792KiB time=00:00:06.16 bitrate=2380.6kbits/s speed=0.0281x elapsed=0:03:39.53    \nframe=  151 fps=0.7 q=28.5 size=    1792KiB time=00:00:06.20 bitrate=2364.6kbits/s speed=0.0282x elapsed=0:03:40.09    \nframe=  151 fps=0.7 q=28.5 size=    1792KiB time=00:00:06.20 bitrate=2364.6kbits/s speed=0.0281x elapsed=0:03:40.61    \nframe=  151 fps=0.7 q=28.5 size=    1792KiB time=00:00:06.20 bitrate=2364.6kbits/s speed=0.0281x elapsed=0:03:41.18    \nframe=  151 fps=0.7 q=28.5 size=    1792KiB time=00:00:06.20 bitrate=2364.6kbits/s speed=0.028x elapsed=0:03:41.72    \nframe=  152 fps=0.7 q=31.4 size=    1792KiB time=00:00:06.25 bitrate=2348.9kbits/s speed=0.0281x elapsed=0:03:42.26    \nframe=  153 fps=0.7 q=33.6 size=    1792KiB time=00:00:06.29 bitrate=2333.3kbits/s speed=0.0282x elapsed=0:03:42.81    \nframe=  154 fps=0.7 q=33.0 size=    1792KiB time=00:00:06.33 bitrate=2318.0kbits/s speed=0.0284x elapsed=0:03:43.34    \nframe=  155 fps=0.7 q=27.9 size=    1792KiB time=00:00:06.37 bitrate=2302.8kbits/s speed=0.0285x elapsed=0:03:43.85    \nframe=  155 fps=0.7 q=27.9 size=    1792KiB time=00:00:06.37 bitrate=2302.8kbits/s speed=0.0284x elapsed=0:03:44.37    \nframe=  156 fps=0.7 q=30.1 size=    1792KiB time=00:00:06.41 bitrate=2287.9kbits/s speed=0.0285x elapsed=0:03:44.89    \nframe=  158 fps=0.7 q=32.6 size=    1792KiB time=00:00:06.50 bitrate=2258.5kbits/s speed=0.0288x elapsed=0:03:45.40    \nframe=  159 fps=0.7 q=33.2 size=    1792KiB time=00:00:06.54 bitrate=2244.1kbits/s speed=0.029x elapsed=0:03:45.93    \nframe=  160 fps=0.7 q=27.3 size=    1792KiB time=00:00:06.58 bitrate=2229.9kbits/s speed=0.0291x elapsed=0:03:46.43    \nframe=  161 fps=0.7 q=27.0 size=    1792KiB time=00:00:06.62 bitrate=2215.9kbits/s speed=0.0292x elapsed=0:03:46.95    \nframe=  162 fps=0.7 q=33.2 size=    2048KiB time=00:00:06.66 bitrate=2516.6kbits/s speed=0.0293x elapsed=0:03:47.46    \nframe=  163 fps=0.7 q=33.1 size=    2048KiB time=00:00:06.70 bitrate=2501.0kbits/s speed=0.0294x elapsed=0:03:47.98    \nframe=  164 fps=0.7 q=33.3 size=    2048KiB time=00:00:06.75 bitrate=2485.6kbits/s speed=0.0295x elapsed=0:03:48.49    \nframe=  165 fps=0.7 q=28.2 size=    2048KiB time=00:00:06.79 bitrate=2470.3kbits/s speed=0.0297x elapsed=0:03:49.01    \nframe=  166 fps=0.7 q=28.0 size=    2048KiB time=00:00:06.83 bitrate=2455.3kbits/s speed=0.0298x elapsed=0:03:49.52    \nframe=  168 fps=0.7 q=33.3 size=    2048KiB time=00:00:06.91 bitrate=2425.7kbits/s speed=0.0301x elapsed=0:03:50.04    \nframe=  169 fps=0.7 q=32.4 size=    2048KiB time=00:00:06.95 bitrate=2411.1kbits/s speed=0.0302x elapsed=0:03:50.56    \nframe=  170 fps=0.7 q=27.8 size=    2048KiB time=00:00:07.00 bitrate=2396.8kbits/s speed=0.0303x elapsed=0:03:51.08    \nframe=  172 fps=0.7 q=33.4 size=    2048KiB time=00:00:07.08 bitrate=2368.6kbits/s speed=0.0306x elapsed=0:03:51.58    \nframe=  173 fps=0.7 q=33.4 size=    2048KiB time=00:00:07.12 bitrate=2354.7kbits/s speed=0.0307x elapsed=0:03:52.12    \nframe=  174 fps=0.7 q=32.5 size=    2048KiB time=00:00:07.16 bitrate=2341.1kbits/s speed=0.0308x elapsed=0:03:52.63    \nframe=  175 fps=0.8 q=27.7 size=    2048KiB time=00:00:07.20 bitrate=2327.5kbits/s speed=0.0309x elapsed=0:03:53.15    \nframe=  176 fps=0.8 q=31.5 size=    2048KiB time=00:00:07.25 bitrate=2314.1kbits/s speed=0.031x elapsed=0:03:53.67    \nframe=  178 fps=0.8 q=32.7 size=    2048KiB time=00:00:07.33 bitrate=2287.9kbits/s speed=0.0313x elapsed=0:03:54.19    \nframe=  179 fps=0.8 q=32.4 size=    2048KiB time=00:00:07.37 bitrate=2274.9kbits/s speed=0.0314x elapsed=0:03:54.71    \nframe=  181 fps=0.8 q=30.4 size=    2048KiB time=00:00:07.45 bitrate=2249.5kbits/s speed=0.0317x elapsed=0:03:55.23    \nframe=  182 fps=0.8 q=31.3 size=    2048KiB time=00:00:07.50 bitrate=2237.0kbits/s speed=0.0318x elapsed=0:03:55.75    \nframe=  183 fps=0.8 q=31.9 size=    2048KiB time=00:00:07.54 bitrate=2224.6kbits/s speed=0.0319x elapsed=0:03:56.27    \nframe=  184 fps=0.8 q=27.1 size=    2048KiB time=00:00:07.58 bitrate=2212.4kbits/s speed=0.032x elapsed=0:03:56.77    \nframe=  186 fps=0.8 q=31.8 size=    2048KiB time=00:00:07.66 bitrate=2188.4kbits/s speed=0.0323x elapsed=0:03:57.30    \nframe=  187 fps=0.8 q=31.6 size=    2048KiB time=00:00:07.70 bitrate=2176.5kbits/s speed=0.0324x elapsed=0:03:57.82    \nframe=  188 fps=0.8 q=26.4 size=    2048KiB time=00:00:07.75 bitrate=2164.8kbits/s speed=0.0325x elapsed=0:03:58.34    \nframe=  189 fps=0.8 q=30.2 size=    2304KiB time=00:00:07.79 bitrate=2422.4kbits/s speed=0.0326x elapsed=0:03:58.85    \nframe=  191 fps=0.8 q=31.5 size=    2304KiB time=00:00:07.87 bitrate=2396.8kbits/s speed=0.0329x elapsed=0:03:59.37    \nframe=  192 fps=0.8 q=29.3 size=    2304KiB time=00:00:07.91 bitrate=2384.2kbits/s speed=0.033x elapsed=0:03:59.89    \nframe=  192 fps=0.8 q=29.3 size=    2304KiB time=00:00:07.91 bitrate=2384.2kbits/s speed=0.0329x elapsed=0:04:00.42    \nframe=  192 fps=0.8 q=29.3 size=    2304KiB time=00:00:07.91 bitrate=2384.2kbits/s speed=0.0329x elapsed=0:04:00.94    \nframe=  193 fps=0.8 q=25.8 size=    2304KiB time=00:00:07.95 bitrate=2371.7kbits/s speed=0.033x elapsed=0:04:01.44    \nframe=  195 fps=0.8 q=31.3 size=    2304KiB time=00:00:08.04 bitrate=2347.1kbits/s speed=0.0332x elapsed=0:04:01.96    \nframe=  197 fps=0.8 q=32.1 size=    2304KiB time=00:00:08.12 bitrate=2323.0kbits/s speed=0.0335x elapsed=0:04:02.48    \nframe=  197 fps=0.8 q=32.1 size=    2304KiB time=00:00:08.12 bitrate=2323.0kbits/s speed=0.0334x elapsed=0:04:03.00    \nframe=  198 fps=0.8 q=26.2 size=    2304KiB time=00:00:08.16 bitrate=2311.2kbits/s speed=0.0335x elapsed=0:04:03.52    \nframe=  200 fps=0.8 q=31.9 size=    2304KiB time=00:00:08.25 bitrate=2287.8kbits/s speed=0.0338x elapsed=0:04:04.03    \nframe=  201 fps=0.8 q=31.7 size=    2304KiB time=00:00:08.29 bitrate=2276.3kbits/s speed=0.0339x elapsed=0:04:04.54    \nframe=  203 fps=0.8 q=26.3 size=    2304KiB time=00:00:08.37 bitrate=2253.7kbits/s speed=0.0342x elapsed=0:04:05.06    \nframe=  204 fps=0.8 q=30.4 size=    2304KiB time=00:00:08.41 bitrate=2242.5kbits/s speed=0.0343x elapsed=0:04:05.58    \nframe=  206 fps=0.8 q=31.3 size=    2304KiB time=00:00:08.50 bitrate=2220.6kbits/s speed=0.0345x elapsed=0:04:06.09    \nframe=  207 fps=0.8 q=30.0 size=    2304KiB time=00:00:08.54 bitrate=2209.7kbits/s speed=0.0346x elapsed=0:04:06.60    \nframe=  208 fps=0.8 q=25.6 size=    2304KiB time=00:00:08.58 bitrate=2199.0kbits/s speed=0.0347x elapsed=0:04:07.12    \nframe=  209 fps=0.8 q=29.1 size=    2560KiB time=00:00:08.62 bitrate=2431.5kbits/s speed=0.0348x elapsed=0:04:07.63    \nframe=  211 fps=0.9 q=30.4 size=    2560KiB time=00:00:08.70 bitrate=2408.3kbits/s speed=0.0351x elapsed=0:04:08.15    \nframe=  212 fps=0.9 q=29.0 size=    2560KiB time=00:00:08.75 bitrate=2396.8kbits/s speed=0.0352x elapsed=0:04:08.66    \nframe=  214 fps=0.9 q=29.1 size=    2560KiB time=00:00:08.83 bitrate=2374.2kbits/s speed=0.0354x elapsed=0:04:09.19    \nframe=  215 fps=0.9 q=30.4 size=    2560KiB time=00:00:08.87 bitrate=2363.0kbits/s speed=0.0355x elapsed=0:04:09.71    \nframe=  216 fps=0.9 q=30.5 size=    2560KiB time=00:00:08.91 bitrate=2352.0kbits/s speed=0.0356x elapsed=0:04:10.23    \nframe=  217 fps=0.9 q=28.5 size=    2560KiB time=00:00:08.95 bitrate=2341.0kbits/s speed=0.0357x elapsed=0:04:10.75    \nframe=  218 fps=0.9 q=25.3 size=    2560KiB time=00:00:09.00 bitrate=2330.2kbits/s speed=0.0358x elapsed=0:04:11.27    \nframe=  220 fps=0.9 q=30.3 size=    2560KiB time=00:00:09.08 bitrate=2308.8kbits/s speed=0.0361x elapsed=0:04:11.78    \nframe=  221 fps=0.9 q=29.7 size=    2560KiB time=00:00:09.12 bitrate=2298.3kbits/s speed=0.0362x elapsed=0:04:12.30    \nframe=  222 fps=0.9 q=28.4 size=    2560KiB time=00:00:09.16 bitrate=2287.8kbits/s speed=0.0363x elapsed=0:04:12.83    \nframe=  223 fps=0.9 q=25.3 size=    2560KiB time=00:00:09.20 bitrate=2277.5kbits/s speed=0.0363x elapsed=0:04:13.35    \nframe=  224 fps=0.9 q=28.1 size=    2560KiB time=00:00:09.25 bitrate=2267.2kbits/s speed=0.0364x elapsed=0:04:13.87    \nframe=  224 fps=0.9 q=28.1 size=    2560KiB time=00:00:09.25 bitrate=2267.2kbits/s speed=0.0364x elapsed=0:04:14.39    \nframe=  226 fps=0.9 q=28.4 size=    2560KiB time=00:00:09.33 bitrate=2247.0kbits/s speed=0.0366x elapsed=0:04:14.90    \nframe=  227 fps=0.9 q=24.6 size=    2560KiB time=00:00:09.37 bitrate=2237.0kbits/s speed=0.0367x elapsed=0:04:15.41    \nframe=  227 fps=0.9 q=24.6 size=    2560KiB time=00:00:09.37 bitrate=2237.0kbits/s speed=0.0366x elapsed=0:04:15.93    \nframe=  228 fps=0.9 q=26.3 size=    2816KiB time=00:00:09.41 bitrate=2449.8kbits/s speed=0.0367x elapsed=0:04:16.45    \nframe=  230 fps=0.9 q=28.2 size=    2816KiB time=00:00:09.50 bitrate=2428.3kbits/s speed=0.037x elapsed=0:04:16.97    \nframe=  231 fps=0.9 q=27.7 size=    2816KiB time=00:00:09.54 bitrate=2417.7kbits/s speed=0.0371x elapsed=0:04:17.49    \nframe=  231 fps=0.9 q=27.7 size=    2816KiB time=00:00:09.54 bitrate=2417.7kbits/s speed=0.037x elapsed=0:04:18.01    \nframe=  232 fps=0.9 q=24.2 size=    2816KiB time=00:00:09.58 bitrate=2407.2kbits/s speed=0.0371x elapsed=0:04:18.53    \nframe=  235 fps=0.9 q=27.7 size=    2816KiB time=00:00:09.70 bitrate=2376.2kbits/s speed=0.0375x elapsed=0:04:19.04    \nframe=  236 fps=0.9 q=27.4 size=    2816KiB time=00:00:09.75 bitrate=2366.1kbits/s speed=0.0376x elapsed=0:04:19.56    \nframe=  236 fps=0.9 q=27.4 size=    2816KiB time=00:00:09.75 bitrate=2366.1kbits/s speed=0.0375x elapsed=0:04:20.07    \nframe=  238 fps=0.9 q=24.3 size=    2816KiB time=00:00:09.83 bitrate=2346.0kbits/s speed=0.0377x elapsed=0:04:20.59    \n[mp4 @ 000001ed58b6b780] Starting second pass: moving the moov atom to the beginning of the file\n[out#0/mp4 @ 000001ed58b6b680] video:2985KiB audio:0KiB subtitle:0KiB other streams:0KiB global headers:2KiB muxing overhead: 0.208248%\nframe=  240 fps=0.9 q=25.8 Lsize=    2991KiB time=00:00:09.91 bitrate=2471.2kbits/s speed=0.038x elapsed=0:04:21.00    \nx265 [info]: frame I:      2, Avg QP:29.63  kb/s: 12587.81\nx265 [info]: frame P:     55, Avg QP:29.93  kb/s: 5810.85 \nx265 [info]: frame B:    183, Avg QP:33.58  kb/s: 1322.26 \nx265 [info]: Weighted P-Frames: Y:0.0% UV:0.0%\n\nencoded 240 frames in 260.94s (0.92 fps), 2444.77 kb/s, Avg QP:32.71\n",
  "seconds": 261.15252900123596,
  "probe_out": {}
}